<svg xmlns="http://www.w3.org/2000/svg" viewBox="0 0 500 500"><g id="freepik--background-simple--inject-1"><path d="M95,135C104.79,82,273.45,44.45,304,90c14.69,22-29.87,80.64-15.57,102.85,18.49,28.75,119,5.11,129.84,37.43,26.53,79.09-243.34,202.05-294.86,136.12-23.22-29.71,74.13-93,68.61-130C186.84,201.93,88.7,168.93,95,135Z" style="fill:#17247D"></path><path d="M95,135C104.79,82,273.45,44.45,304,90c14.69,22-29.87,80.64-15.57,102.85,18.49,28.75,119,5.11,129.84,37.43,26.53,79.09-243.34,202.05-294.86,136.12-23.22-29.71,74.13-93,68.61-130C186.84,201.93,88.7,168.93,95,135Z" style="fill:#fff;opacity:0.9"></path></g><g id="freepik--Shadow--inject-1"><ellipse id="freepik--path--inject-1" cx="250" cy="412.39" rx="193.89" ry="11.32" style="fill:#f5f5f5"></ellipse></g><g id="freepik--chart-4--inject-1"><path d="M399,146.25l-20.59-4.34,19-7,.26-5c-4.67-7-14.5-11.74-26.11-11.74-16.65,0-30.67,9.79-31.3,21.86,0,.35,0,.7,0,1S340,144.63,340,145c-.63,12.07,12.36,21.86,29,21.86,13.67,0,25.56-6.6,29.73-15.64Z" style="fill:#17247D"></path><path d="M369.45,140l28.18-10.12c-4.67-7-14.5-11.74-26.11-11.74-16.65,0-30.67,9.79-31.3,21.86s12.36,21.86,29,21.86c13.67,0,25.56-6.59,29.73-15.64Z" style="fill:#fff;opacity:0.7000000000000001"></path><path d="M387.69,142.22l28.59,6.22a16.84,16.84,0,0,0,1.57-6.22,15.39,15.39,0,0,0,0-1.8,16.71,16.71,0,0,0,.21-1.87,16.46,16.46,0,0,0-2.9-10.12l-27.25,10.12Z" style="fill:#17247D"></path><path d="M416.47,144.77a16.84,16.84,0,0,0,1.57-6.22,16.46,16.46,0,0,0-2.9-10.12l-27.25,10.12Z" style="fill:#fff;opacity:0.30000000000000004"></path></g><g id="freepik--chart-3--inject-1"><path d="M286.24,229.17v-1.46H275V216.39h-1.46v11.32H262.78V216.39h-1.46v11.32H250.73V216.39h-1.46v11.32h-10.5V216.39h-1.46v11.32H226.54V216.39h-1.46v11.32H213.94v1.46h11.14v10.59H213.94v1.46h11.14v10.59H213.94v1.46h11.14v11.32h1.46V253.27h10.77v11.32h1.46V253.27h10.5v11.32h1.46V253.27h10.59v11.32h1.46V253.27h10.77v11.32H275V253.27h11.23v-1.46H275V241.22h11.23v-1.46H275V229.17Zm-24.92,0v10.59H250.73V229.17Zm-12,0v10.59h-10.5V229.17Zm-22.73,0h10.77v10.59H226.54Zm0,22.64V241.22h10.77v10.59Zm12.23,0V241.22h10.5v10.59Zm12,0V241.22h10.59v10.59Zm22.82,0H262.78V241.22h10.77Zm0-12.05H262.78V229.17h10.77Z" style="fill:#17247D"></path><path d="M286.24,229.17v-1.46H275V216.39h-1.46v11.32H262.78V216.39h-1.46v11.32H250.73V216.39h-1.46v11.32h-10.5V216.39h-1.46v11.32H226.54V216.39h-1.46v11.32H213.94v1.46h11.14v10.59H213.94v1.46h11.14v10.59H213.94v1.46h11.14v11.32h1.46V253.27h10.77v11.32h1.46V253.27h10.5v11.32h1.46V253.27h10.59v11.32h1.46V253.27h10.77v11.32H275V253.27h11.23v-1.46H275V241.22h11.23v-1.46H275V229.17Zm-24.92,0v10.59H250.73V229.17Zm-12,0v10.59h-10.5V229.17Zm-22.73,0h10.77v10.59H226.54Zm0,22.64V241.22h10.77v10.59Zm12.23,0V241.22h10.5v10.59Zm12,0V241.22h10.59v10.59Zm22.82,0H262.78V241.22h10.77Zm0-12.05H262.78V229.17h10.77Z" style="fill:#fff;opacity:0.7000000000000001"></path><path d="M282.57,266.05H217.43a5.13,5.13,0,0,1-5.13-5.13V220.07a5.13,5.13,0,0,1,5.13-5.13h65.14a5.13,5.13,0,0,1,5.13,5.13v40.85A5.14,5.14,0,0,1,282.57,266.05Zm-65.14-48.2a2.21,2.21,0,0,0-2.21,2.22v40.85a2.21,2.21,0,0,0,2.21,2.21h65.14a2.21,2.21,0,0,0,2.21-2.21V220.07a2.21,2.21,0,0,0-2.21-2.22Z" style="fill:#17247D"></path><g style="opacity:0.8"><path d="M282.57,266.05H217.43a5.13,5.13,0,0,1-5.13-5.13V220.07a5.13,5.13,0,0,1,5.13-5.13h65.14a5.13,5.13,0,0,1,5.13,5.13v40.85A5.14,5.14,0,0,1,282.57,266.05Zm-65.14-48.2a2.21,2.21,0,0,0-2.21,2.22v40.85a2.21,2.21,0,0,0,2.21,2.21h65.14a2.21,2.21,0,0,0,2.21-2.21V220.07a2.21,2.21,0,0,0-2.21-2.22Z" style="fill:#fff"></path></g><polygon points="275.14 226.02 268.62 226.02 262.1 232.54 249.83 238.67 236.99 238.67 224.34 251.32 215.22 251.32 215.22 253.51 225.24 253.51 237.89 240.86 250.35 240.86 263.39 234.34 269.52 228.2 275.65 228.2 284.78 223.64 284.78 221.19 275.14 226.02" style="fill:#17247D"></polygon><g style="opacity:0.6000000000000001"><polygon points="275.14 226.02 268.62 226.02 262.1 232.54 249.83 238.67 236.99 238.67 224.34 251.32 215.22 251.32 215.22 253.51 225.24 253.51 237.89 240.86 250.35 240.86 263.39 234.34 269.52 228.2 275.65 228.2 284.78 223.64 284.78 221.19 275.14 226.02" style="fill:#fff"></polygon></g><polygon points="274.75 238.87 249.83 251.32 237.18 251.32 224.53 257.65 215.22 257.65 215.22 259.83 225.05 259.83 237.7 253.51 250.35 253.51 276.04 240.66 284.78 231.92 284.78 228.83 274.75 238.87" style="fill:#17247D"></polygon><polygon points="275.14 232.34 262.49 238.67 249.83 238.67 237.18 245 215.22 245 215.22 247.18 237.7 247.18 250.35 240.86 263 240.86 275.65 234.53 284.78 234.53 284.78 232.34 275.14 232.34" style="fill:#17247D"></polygon><g style="opacity:0.30000000000000004"><polygon points="275.14 232.34 262.49 238.67 249.83 238.67 237.18 245 215.22 245 215.22 247.18 237.7 247.18 250.35 240.86 263 240.86 275.65 234.53 284.78 234.53 284.78 232.34 275.14 232.34" style="fill:#fff"></polygon></g></g><g id="freepik--chart-2--inject-1"><polygon points="220.52 138.66 212.46 138.66 212.37 160.5 220.42 160.5 220.52 138.66" style="fill:#17247D"></polygon><polygon points="220.52 138.66 212.46 138.66 212.37 160.5 220.42 160.5 220.52 138.66" style="fill:#fff;opacity:0.6000000000000001"></polygon><rect x="279.48" y="100.91" width="8.05" height="59.59" style="fill:#17247D"></rect><g style="opacity:0.1"><rect x="279.48" y="100.91" width="8.05" height="59.59" style="fill:#fff"></rect></g><polygon points="234.23 138.16 226.18 138.16 225.79 160.5 233.84 160.5 234.23 138.16" style="fill:#17247D"></polygon><polygon points="234.23 138.16 226.18 138.16 225.79 160.5 233.84 160.5 234.23 138.16" style="fill:#fff;opacity:0.7000000000000001"></polygon><polygon points="274.16 113.94 266.11 113.94 266.06 160.5 274.11 160.5 274.16 113.94" style="fill:#17247D"></polygon><polygon points="274.16 113.94 266.11 113.94 266.06 160.5 274.11 160.5 274.16 113.94" style="fill:#fff;opacity:0.30000000000000004"></polygon><polygon points="260.45 115.89 252.4 115.89 252.64 160.5 260.69 160.5 260.45 115.89" style="fill:#17247D"></polygon><polygon points="260.45 115.89 252.4 115.89 252.64 160.5 260.69 160.5 260.45 115.89" style="fill:#fff;opacity:0.4"></polygon><polygon points="246.81 116.81 238.75 116.81 239.21 160.5 247.27 160.5 246.81 116.81" style="fill:#17247D"></polygon><g style="opacity:0.30000000000000004"><polygon points="246.81 116.81 238.75 116.81 239.21 160.5 247.27 160.5 246.81 116.81" style="fill:#fff"></polygon></g><g style="opacity:0.1"><polygon points="212.54 140.21 226.36 153.69 240.13 126.15 250.46 115.83 262.85 128.22 285.43 105.64 287.63 107.85 287.63 99.87 279.65 99.87 281.86 102.08 262.85 121.09 250.46 108.7 235.99 123.16 224.98 145.18 212.56 133.24 212.54 140.21"></polygon></g><polygon points="212.6 137.72 225.9 150.55 239.67 123.01 249.99 112.69 262.38 125.08 279.12 108.34 281.33 110.55 287.17 96.73 273.35 102.56 275.56 104.77 262.38 117.95 249.99 105.56 235.53 120.02 224.51 142.04 212.62 130.75 212.6 137.72" style="fill:#263238"></polygon></g><g id="freepik--chart-1--inject-1"><path d="M106,168.83v6a18,18,0,0,1,10.25,4.24l4.27-4.27A24,24,0,0,0,106,168.83Z" style="fill:#17247D"></path><path d="M106,168.83v6a18,18,0,0,1,10.25,4.24l4.27-4.27A24,24,0,0,0,106,168.83Z" style="fill:#fff;opacity:0.30000000000000004"></path><path d="M103.07,210.89a18.09,18.09,0,0,1-16.55-16.56h-6a24.11,24.11,0,0,0,22.59,22.6Z" style="fill:#17247D"></path><path d="M103.07,210.89a18.09,18.09,0,0,1-16.55-16.56h-6a24.11,24.11,0,0,0,22.59,22.6Z" style="fill:#fff;opacity:0.7000000000000001"></path><path d="M86.52,191.42a18.07,18.07,0,0,1,16.55-16.55v-6a24.09,24.09,0,0,0-22.59,22.59Z" style="fill:#17247D"></path><path d="M86.52,191.42a18.07,18.07,0,0,1,16.55-16.55v-6a24.09,24.09,0,0,0-22.59,22.59Z" style="opacity:0.2"></path><path d="M122.57,176.9l-4.27,4.27A18.07,18.07,0,0,1,106,210.89v6a24.1,24.1,0,0,0,16.58-40Z" style="fill:#17247D"></path></g><g id="freepik--Briefcase--inject-1"><path d="M264.39,372h-4c0-2.23-1.28-3.79-2.43-3.79H241.87c-1.15,0-2.43,1.56-2.43,3.79h-4c0-4.29,2.88-7.79,6.43-7.79H258C261.5,364.25,264.39,367.75,264.39,372Z" style="fill:#263238"></path><path d="M216.4,370.78h67.25a3.24,3.24,0,0,1,3.24,3.24v37.31a5.59,5.59,0,0,1-5.59,5.59H218.74a5.59,5.59,0,0,1-5.59-5.59V374a3.24,3.24,0,0,1,3.24-3.24Z" transform="translate(-1.8 1.15) rotate(-0.26)" style="fill:#263238"></path><path d="M287,411.16a5.59,5.59,0,0,1-5.56,5.62l-55.52.28a5.58,5.58,0,0,1-5.61-5.56l-.13-29.2h1.92a11.11,11.11,0,0,1-1.63-3.75,24.47,24.47,0,0,0-2-5.91l-.44-.84a3.22,3.22,0,0,1,2.18-.86l63.4-.31a3.25,3.25,0,0,1,3.26,3.23Z" style="fill:#fff;opacity:0.2"></path><polygon points="255.85 416.65 254.2 416.64 254.47 385.18 256.12 385.19 255.85 416.65" style="fill:#263238"></polygon><path d="M283,370.55l-66.27.3A3.54,3.54,0,0,0,213,374.2v5.05c0,5.19,4.75,9.37,10.56,9.35l52.71-.24c5.8,0,10.49-4.26,10.47-9.45v-5.05A3.54,3.54,0,0,0,283,370.55Z" style="opacity:0.2"></path><path d="M283.41,370.63l-59.9.27-6,0,.89,1.71a24.47,24.47,0,0,1,2,5.91c1.05,4.58,4.81,8,9.27,7.94l47.64-.22c5.25,0,9.49-4.75,9.46-10.55v-1.37A3.56,3.56,0,0,0,283.41,370.63Z" style="fill:#263238"></path><path d="M283.41,370.63l-59.9.27-6,0,.89,1.71a24.47,24.47,0,0,1,2,5.91c1.05,4.58,4.81,8,9.27,7.94l47.64-.22c5.25,0,9.49-4.75,9.46-10.55v-1.37A3.56,3.56,0,0,0,283.41,370.63Z" style="fill:#fff;opacity:0.30000000000000004"></path><rect x="235.45" y="380.85" width="7.05" height="11.38" rx="1.95" transform="translate(-1.76 1.1) rotate(-0.26)" style="fill:#fff"></rect><rect x="266.68" y="380.81" width="7.05" height="11.38" rx="1.95" transform="translate(-1.76 1.24) rotate(-0.26)" style="fill:#fff"></rect><path d="M222.07,382.3h-8.95l0-.63v-1.41l0-6.07a3.21,3.21,0,0,1,.37-1.51,3.48,3.48,0,0,1,.22-.36,3.73,3.73,0,0,1,1.87-1.28,2.73,2.73,0,0,1,.76-.1h1.22l.45.87.44.84a24.47,24.47,0,0,1,2,5.91A11.11,11.11,0,0,0,222.07,382.3Z" style="opacity:0.2"></path></g><g id="freepik--character-1--inject-1"><circle cx="250.57" cy="130.24" r="54.64" transform="translate(-18.7 215.32) rotate(-45)" style="opacity:0.1"></circle><path d="M202.35,221c-6.66,3.36-23.82-11.34-32.44-19.38a6.05,6.05,0,1,1,8.54-8.56c4.84,5.21,13.11,13.32,16.49,11.84s2.23-15,2.23-15l2.05.54,5.26,1.39,1.23.33S208.81,217.79,202.35,221Z" style="fill:#263238"></path><polygon points="226.36 383.53 233.44 399.29 241.12 396.02 234.03 379.07 226.36 383.53" style="fill:#7f3e3b"></polygon><path d="M183.8,245.93s24,55,31.16,72.79c6.5,16.25,22.79,66,22.79,66l-10,4.65S211.39,359,207,348.47c-2.19-5.21-5.26-16.22-7.7-21.31-6.27-13.05-23.59-36.18-30.07-49.1-2.37-4.71-9.93-27.49-9.93-27.49Z" style="fill:#17247D"></path><path d="M242.16,396.08a.19.19,0,0,1-.19-.1.2.2,0,0,1,0-.23c.09-.11,2.12-2.73,3.5-2.85a.94.94,0,0,1,.71.23.8.8,0,0,1,.3.82c-.15.55-1.05,1.11-2,1.47A14,14,0,0,1,242.16,396.08Zm.48-.48c1.45-.35,3.33-1.1,3.49-1.76,0-.08,0-.22-.18-.4a.52.52,0,0,0-.44-.13,1.55,1.55,0,0,0-.36.08A8.81,8.81,0,0,0,242.64,395.6Z" style="fill:#17247D"></path><path d="M242.06,396.11a.19.19,0,0,1-.13-.14c0-.11-.59-2.35.06-3.56a1.42,1.42,0,0,1,.87-.71c.5-.14.75.07.84.28.48.84-.7,3.28-1.44,4a.1.1,0,0,1-.07,0A.2.2,0,0,1,242.06,396.11Zm.81-4a1,1,0,0,0-.53.47,5.12,5.12,0,0,0-.12,2.85c.71-.95,1.41-2.77,1.17-3.29,0-.05-.1-.18-.43-.08l-.09.05Z" style="fill:#17247D"></path><path d="M240.92,395l-8.12,3.18a.75.75,0,0,0-.45.8l1,7.7a1.21,1.21,0,0,0,1.31,1.09l.24-.06c2.91-1.21,5.45-2.4,9.1-3.82,4.3-1.69,3.4-.71,8.49-2.61,3.06-1.15,2.31-5.11.95-4.78-6.2,1.51-7.49-.17-10.57-1.56A2.64,2.64,0,0,0,240.92,395Z" style="fill:#263238"></path><path d="M187,306.62c-2.42-12.83-9.33-25.75-9.33-25.75l-5,3.34C176.56,290.87,181.93,298.88,187,306.62Z" style="opacity:0.2"></path><polygon points="153.23 387.35 150.7 404.5 158.8 406.55 161.97 388.43 153.23 387.35" style="fill:#7f3e3b"></polygon><path d="M179.8,249.35s1.2,67.06-2.28,89.33c-2.32,14.85-15.84,58.76-15.84,58.76l-11.2-3.13s2.77-34.79,4.86-46.26c.61-3.35,2.37-9.93,2.77-13.32,1.37-11.58,1.06-35.18-.49-46.78-.64-4.73-3.63-13.87-4.34-18.6-.61-4.11-1.12-16.61-1.12-16.61Z" style="fill:#17247D"></path><path d="M159.74,408.34a.23.23,0,0,1-.11-.2.19.19,0,0,1,.14-.18c.14,0,3.22-.88,4.42-.12a1.1,1.1,0,0,1,.46.63.79.79,0,0,1-.2.85,3.16,3.16,0,0,1-2.41-.05A13.84,13.84,0,0,1,159.74,408.34Zm.65-.09c1.39.62,3.33,1.18,3.82.75.07-.05.15-.15.07-.43a.54.54,0,0,0-.29-.38,1.33,1.33,0,0,0-.34-.16A8.35,8.35,0,0,0,160.39,408.25Z" style="fill:#17247D"></path><path d="M159.65,408.3a.19.19,0,0,1,0-.2c0-.1.79-2.26,2-2.83a1.3,1.3,0,0,1,1.09,0c.49.2.58.52.55.75-.07,1-2.36,2.21-3.38,2.37a.08.08,0,0,1-.08,0A.13.13,0,0,1,159.65,408.3Zm2.82-2.73a.92.92,0,0,0-.69.06,4.59,4.59,0,0,0-1.64,2.22c1.1-.32,2.66-1.36,2.75-1.93,0-.05,0-.2-.31-.33l-.11,0Z" style="fill:#17247D"></path><path d="M159.3,406.7l-8.4-2.5a.68.68,0,0,0-.8.37l-3.32,6.85a1.32,1.32,0,0,0,.49,1.7l.23.1c3,.84,5.78,1.46,9.55,2.59,4.44,1.32,3.18,1.55,8.39,3.19,3.14,1,4.66-2.68,3.37-3.27-5.91-2.63-6.06-4.8-7.84-7.84A2.89,2.89,0,0,0,159.3,406.7Z" style="fill:#263238"></path><polygon points="166.57 252.27 153.61 255.07 154.07 258.32 167.31 255.46 166.57 252.27" style="fill:#263238"></polygon><polygon points="183.4 248.67 178.03 249.79 178.84 252.97 184.91 251.7 183.4 248.67" style="fill:#263238"></polygon><polygon points="175.66 250.31 169.26 251.69 169.98 254.88 176.41 253.5 175.66 250.31" style="fill:#fff"></polygon><path d="M148.42,165s5.37-2.78,4.64,4l-4.53-.74Z" style="fill:#263238"></path><path d="M144.34,185.07c2.27,3.6,5.65,10.07,5.07,14.38a2.23,2.23,0,0,0,1.44,2.39,15.43,15.43,0,0,0,11,.38c4.6-1.58,4-4.12,2.36-5.67a2.16,2.16,0,0,0-1.62-.6c-4.81.27-6.55-3.36-7-6.93Z" style="fill:#7f3e3b"></path><path d="M148.93,186.7l6.65,2.3a16.34,16.34,0,0,0,.59,2.58,7.36,7.36,0,0,1-6.58-2C148.62,188.52,148.5,187,148.93,186.7Z" style="opacity:0.2;isolation:isolate"></path><path d="M140.21,179.33c3.08,5.65,4.59,9.1,8.94,10.71,6.53,2.43,12.49-3.59,11.17-10-1.2-5.83-6-14.06-12.82-13.72a8.8,8.8,0,0,0-8.4,9.15A8.69,8.69,0,0,0,140.21,179.33Z" style="fill:#7f3e3b"></path><path d="M150,176.19c.22.48.65.75,1,.6s.38-.64.16-1.12-.65-.73-1-.59S149.79,175.73,150,176.19Z" style="fill:#263238"></path><path d="M155.07,173.27c.23.46.65.73,1,.59s.38-.65.16-1.12-.66-.74-1-.59S154.85,172.79,155.07,173.27Z" style="fill:#263238"></path><path d="M153.54,174.89a18.39,18.39,0,0,0,4.74,2,3.05,3.05,0,0,1-1.69,1.92Z" style="fill:#630f0f"></path><path d="M148.31,175.64l-.15,0a.3.3,0,0,1-.25-.35,3.09,3.09,0,0,1,1.62-2.3.3.3,0,0,1,.4.15.31.31,0,0,1-.15.41h0a2.5,2.5,0,0,0-1.27,1.83A.31.31,0,0,1,148.31,175.64Z" style="fill:#263238"></path><path d="M156.52,171a.28.28,0,0,1-.29,0,2.47,2.47,0,0,0-2.2.18.31.31,0,0,1-.43-.06.31.31,0,0,1,.07-.43,3.05,3.05,0,0,1,2.8-.27.31.31,0,0,1,.18.38h0A.23.23,0,0,1,156.52,171Z" style="fill:#263238"></path><path d="M135,211.2l17,43.05,31.84-8.32-6.34-50.83a4.39,4.39,0,0,0-6-3.33l-34,14.1A4.36,4.36,0,0,0,135,211.2Z" style="fill:#263238"></path><polygon points="155.1 201.84 156.78 199.61 159.84 199.32 161.04 202.6 161.26 205 162.99 206.69 171.44 234.25 169.7 239.14 164.31 236.41 158.87 208.76 158.89 206.03 155.22 203.03 155.1 201.84" style="fill:#17247D"></polygon><polygon points="148.28 198.74 145.45 202.56 153.37 205.79 156.96 200.29 165.82 199.84 163.56 194.92 160.67 194.41 155.87 198.23 148.28 198.74" style="fill:#263238"></polygon><polygon points="148.28 198.74 145.45 202.56 153.37 205.79 156.96 200.29 165.82 199.84 163.56 194.92 160.67 194.41 155.87 198.23 148.28 198.74" style="fill:#fff;opacity:0.2"></polygon><path d="M153,182.25a6.22,6.22,0,0,1-.92-.31.19.19,0,0,1-.11-.25h0a.2.2,0,0,1,.26-.1,5.26,5.26,0,0,0,4.73-.23.19.19,0,0,1,.22.32A5.46,5.46,0,0,1,153,182.25Z" style="fill:#263238"></path><path d="M140.74,185.07s6.39-1.52.73-8.57c0,0-.15-1.09-.54-4.49,0,0,12.73-7,8.73-10.6s-6.25,2.37-6.25,2.37-5.59-2.46-6,4.36c0,0-5.64,2.41-2.21,7.32a5.07,5.07,0,0,0,2,6.18S138,184.92,140.74,185.07Z" style="fill:#263238"></path><path d="M139.57,185.62a6.19,6.19,0,0,0,4.39,1.64c2.15-.1,2.56-2.16,1.41-3.84-1-1.5-3.41-3.27-5.29-2.37A2.73,2.73,0,0,0,139.57,185.62Z" style="fill:#7f3e3b"></path><rect x="72.83" y="217.2" width="162.47" height="9.7" transform="translate(-110.49 166.78) rotate(-43.45)" style="fill:#17247D"></rect><rect x="72.83" y="217.2" width="162.47" height="9.7" transform="translate(-110.49 166.78) rotate(-43.45)" style="opacity:0.5"></rect><path d="M165.58,227l-57,54a7.66,7.66,0,0,1-10.83-.29l-5.25-5.55a7.66,7.66,0,0,1,.29-10.83l57-54a8.56,8.56,0,0,1,12.08.33l4,4.27A8.53,8.53,0,0,1,165.58,227Z" style="fill:#17247D"></path><path d="M165.58,227l-57,54a7.66,7.66,0,0,1-10.83-.29l-5.25-5.55a7.66,7.66,0,0,1,.29-10.83l57-54a8.56,8.56,0,0,1,12.08.33l4,4.27A8.53,8.53,0,0,1,165.58,227Z" style="fill:#fff;opacity:0.5"></path><path d="M250.16,189.43c-.56,0-1.12,0-1.68,0a59.74,59.74,0,1,1,1.68,0ZM250,80.36a49.67,49.67,0,1,0,1.4,0C250.92,80.36,250.46,80.36,250,80.36Z" style="fill:#17247D"></path><path d="M142.9,237.49l5-.05,4-5.24,2.16.54a3.54,3.54,0,0,1,2.65,3.09h0a3.51,3.51,0,0,1-1.33,3.1l-4.29,3.39a3.61,3.61,0,0,1-2.94.69l-.58-.13-5.92-.26Z" style="fill:#7f3e3b"></path><path d="M143.42,208.55a6.07,6.07,0,0,0-9.23-.46c-8.09,8.58-22.89,25.64-19.58,32.33,3.21,6.48,28.82,3.53,28.82,3.53l2.31-8.53s-13.48,1.15-15-2.32,6.7-11.61,11.94-16.42a6,6,0,0,0,.72-8.13Z" style="fill:#263238"></path><path d="M241.8,84c-18.42,4-38.65,25.28-38.52,48,.84,4.95,1.41,8,2.31,12a1.18,1.18,0,0,0,2.27.13c8.84-25.12,24.28-44.25,47-58.2a1.18,1.18,0,0,0-.59-2.18C250.1,83.66,246.91,83.76,241.8,84Z" style="fill:#fff;opacity:0.5"></path><g style="opacity:0.5"><path d="M295.4,116c-10.45,24.07-28.48,45.8-49.81,61a1.2,1.2,0,0,1-.66.21l-5.73.06a1.13,1.13,0,0,1-.75-2,249.09,249.09,0,0,0,52.61-64.66,1.94,1.94,0,0,1,3.57.47c.27,1.09.54,2.23.88,3.63A2,2,0,0,1,295.4,116Z" style="fill:#fff"></path></g><path d="M204.74,187.64l-.12.58-.14,3.8-5.26-1.39-.05-2.74L193.91,184l.53-2.17a3.54,3.54,0,0,1,3.08-2.67l.35,0a3.55,3.55,0,0,1,2.75,1.33l3.41,4.28A3.55,3.55,0,0,1,204.74,187.64Z" style="fill:#7f3e3b"></path></g></svg>